<mxfile host="app.diagrams.net" modified="2023-08-27T14:32:41.528Z" agent="Mozilla/5.0 (Windows NT 10.0; Win64; x64) AppleWebKit/537.36 (KHTML, like Gecko) Chrome/116.0.0.0 Safari/537.36" etag="QW2iUjqGEukSlWCNeo96" version="21.6.6" type="github">
  <diagram name="Page-1" id="L4ovfIRDPq5DebzTR7uJ">
    <mxGraphModel dx="1050" dy="574" grid="0" gridSize="10" guides="1" tooltips="1" connect="1" arrows="1" fold="1" page="1" pageScale="1" pageWidth="827" pageHeight="1169" math="0" shadow="0">
      <root>
        <mxCell id="0" />
        <mxCell id="1" parent="0" />
        <mxCell id="X6nYdE7OqTvhrhTpusn--13" style="edgeStyle=orthogonalEdgeStyle;rounded=0;orthogonalLoop=1;jettySize=auto;html=1;entryX=0.5;entryY=0;entryDx=0;entryDy=0;" parent="1" source="X6nYdE7OqTvhrhTpusn--1" target="X6nYdE7OqTvhrhTpusn--2" edge="1">
          <mxGeometry relative="1" as="geometry" />
        </mxCell>
        <mxCell id="X6nYdE7OqTvhrhTpusn--1" value="Start" style="ellipse;whiteSpace=wrap;html=1;" parent="1" vertex="1">
          <mxGeometry x="360" y="80" width="120" height="50" as="geometry" />
        </mxCell>
        <mxCell id="X6nYdE7OqTvhrhTpusn--14" style="edgeStyle=orthogonalEdgeStyle;rounded=0;orthogonalLoop=1;jettySize=auto;html=1;exitX=0.5;exitY=1;exitDx=0;exitDy=0;entryX=0.5;entryY=0;entryDx=0;entryDy=0;" parent="1" source="X6nYdE7OqTvhrhTpusn--2" target="X6nYdE7OqTvhrhTpusn--3" edge="1">
          <mxGeometry relative="1" as="geometry" />
        </mxCell>
        <mxCell id="X6nYdE7OqTvhrhTpusn--2" value="Input x1,x2&amp;nbsp;and&lt;br&gt;&amp;nbsp;y2,y2" style="shape=parallelogram;perimeter=parallelogramPerimeter;whiteSpace=wrap;html=1;fixedSize=1;" parent="1" vertex="1">
          <mxGeometry x="330" y="160" width="180" height="50" as="geometry" />
        </mxCell>
        <mxCell id="X6nYdE7OqTvhrhTpusn--15" style="edgeStyle=orthogonalEdgeStyle;rounded=0;orthogonalLoop=1;jettySize=auto;html=1;entryX=0.5;entryY=0;entryDx=0;entryDy=0;" parent="1" source="X6nYdE7OqTvhrhTpusn--3" target="X6nYdE7OqTvhrhTpusn--4" edge="1">
          <mxGeometry relative="1" as="geometry" />
        </mxCell>
        <mxCell id="X6nYdE7OqTvhrhTpusn--3" value="Calculate delx = x2-x1&lt;br&gt;dely = y2 - y1&lt;br&gt;&amp;nbsp; &amp;nbsp;m&amp;nbsp; = dely / delx" style="rounded=0;whiteSpace=wrap;html=1;" parent="1" vertex="1">
          <mxGeometry x="330" y="240" width="170" height="60" as="geometry" />
        </mxCell>
        <mxCell id="X6nYdE7OqTvhrhTpusn--16" style="edgeStyle=orthogonalEdgeStyle;rounded=0;orthogonalLoop=1;jettySize=auto;html=1;entryX=0.5;entryY=0;entryDx=0;entryDy=0;" parent="1" source="X6nYdE7OqTvhrhTpusn--4" target="X6nYdE7OqTvhrhTpusn--5" edge="1">
          <mxGeometry relative="1" as="geometry" />
        </mxCell>
        <mxCell id="X6nYdE7OqTvhrhTpusn--31" style="edgeStyle=orthogonalEdgeStyle;rounded=0;orthogonalLoop=1;jettySize=auto;html=1;entryX=0;entryY=0.5;entryDx=0;entryDy=0;" parent="1" source="X6nYdE7OqTvhrhTpusn--4" target="X6nYdE7OqTvhrhTpusn--12" edge="1">
          <mxGeometry relative="1" as="geometry">
            <Array as="points">
              <mxPoint x="90" y="370" />
              <mxPoint x="90" y="870" />
            </Array>
          </mxGeometry>
        </mxCell>
        <mxCell id="X6nYdE7OqTvhrhTpusn--4" value="if x1 = x2 and&lt;br&gt;y1 = y2" style="rhombus;whiteSpace=wrap;html=1;" parent="1" vertex="1">
          <mxGeometry x="180" y="330" width="120" height="80" as="geometry" />
        </mxCell>
        <mxCell id="X6nYdE7OqTvhrhTpusn--17" style="edgeStyle=orthogonalEdgeStyle;rounded=0;orthogonalLoop=1;jettySize=auto;html=1;entryX=0.5;entryY=0;entryDx=0;entryDy=0;" parent="1" source="X6nYdE7OqTvhrhTpusn--5" target="X6nYdE7OqTvhrhTpusn--6" edge="1">
          <mxGeometry relative="1" as="geometry" />
        </mxCell>
        <mxCell id="X6nYdE7OqTvhrhTpusn--20" style="edgeStyle=orthogonalEdgeStyle;rounded=0;orthogonalLoop=1;jettySize=auto;html=1;entryX=0.597;entryY=-0.043;entryDx=0;entryDy=0;entryPerimeter=0;" parent="1" source="X6nYdE7OqTvhrhTpusn--5" target="X6nYdE7OqTvhrhTpusn--9" edge="1">
          <mxGeometry relative="1" as="geometry">
            <Array as="points">
              <mxPoint x="696" y="455" />
            </Array>
          </mxGeometry>
        </mxCell>
        <mxCell id="X6nYdE7OqTvhrhTpusn--5" value="if m=0" style="rhombus;whiteSpace=wrap;html=1;" parent="1" vertex="1">
          <mxGeometry x="580" y="430" width="90" height="50" as="geometry" />
        </mxCell>
        <mxCell id="X6nYdE7OqTvhrhTpusn--18" style="edgeStyle=orthogonalEdgeStyle;rounded=0;orthogonalLoop=1;jettySize=auto;html=1;entryX=0.5;entryY=0;entryDx=0;entryDy=0;" parent="1" source="X6nYdE7OqTvhrhTpusn--6" target="X6nYdE7OqTvhrhTpusn--8" edge="1">
          <mxGeometry relative="1" as="geometry" />
        </mxCell>
        <mxCell id="X6nYdE7OqTvhrhTpusn--19" style="edgeStyle=orthogonalEdgeStyle;rounded=0;orthogonalLoop=1;jettySize=auto;html=1;entryX=0.44;entryY=-0.031;entryDx=0;entryDy=0;entryPerimeter=0;" parent="1" source="X6nYdE7OqTvhrhTpusn--6" target="X6nYdE7OqTvhrhTpusn--7" edge="1">
          <mxGeometry relative="1" as="geometry">
            <mxPoint x="220" y="590" as="targetPoint" />
            <Array as="points">
              <mxPoint x="220" y="505" />
            </Array>
          </mxGeometry>
        </mxCell>
        <mxCell id="X6nYdE7OqTvhrhTpusn--6" value="if m&amp;lt;1" style="rhombus;whiteSpace=wrap;html=1;" parent="1" vertex="1">
          <mxGeometry x="290" y="480" width="90" height="50" as="geometry" />
        </mxCell>
        <mxCell id="X6nYdE7OqTvhrhTpusn--7" value="Calculate y1=y1+m&lt;br&gt;roundup(y1)&lt;br&gt;x1 = x1+1" style="rounded=0;whiteSpace=wrap;html=1;" parent="1" vertex="1">
          <mxGeometry x="150" y="600" width="160" height="70" as="geometry" />
        </mxCell>
        <mxCell id="X6nYdE7OqTvhrhTpusn--8" value="Calculate x1=x1+(1/m)&lt;br style=&quot;border-color: var(--border-color);&quot;&gt;roundup(x1)&lt;br style=&quot;border-color: var(--border-color);&quot;&gt;y1 = y1+1" style="rounded=0;whiteSpace=wrap;html=1;" parent="1" vertex="1">
          <mxGeometry x="390" y="600" width="160" height="70" as="geometry" />
        </mxCell>
        <mxCell id="X6nYdE7OqTvhrhTpusn--9" value="Calculate x1 = x1+1&lt;br&gt;y1=y1+1" style="rounded=0;whiteSpace=wrap;html=1;" parent="1" vertex="1">
          <mxGeometry x="600" y="600" width="160" height="70" as="geometry" />
        </mxCell>
        <mxCell id="X6nYdE7OqTvhrhTpusn--10" value="" style="line;strokeWidth=2;html=1;" parent="1" vertex="1">
          <mxGeometry x="170" y="720" width="570" height="10" as="geometry" />
        </mxCell>
        <mxCell id="X6nYdE7OqTvhrhTpusn--32" style="edgeStyle=orthogonalEdgeStyle;rounded=0;orthogonalLoop=1;jettySize=auto;html=1;entryX=1;entryY=0.5;entryDx=0;entryDy=0;" parent="1" source="X6nYdE7OqTvhrhTpusn--11" target="X6nYdE7OqTvhrhTpusn--3" edge="1">
          <mxGeometry relative="1" as="geometry">
            <Array as="points">
              <mxPoint x="780" y="803" />
              <mxPoint x="780" y="270" />
            </Array>
          </mxGeometry>
        </mxCell>
        <mxCell id="X6nYdE7OqTvhrhTpusn--11" value="Print x1 and y1" style="shape=parallelogram;perimeter=parallelogramPerimeter;whiteSpace=wrap;html=1;fixedSize=1;" parent="1" vertex="1">
          <mxGeometry x="380" y="780" width="160" height="45" as="geometry" />
        </mxCell>
        <mxCell id="X6nYdE7OqTvhrhTpusn--12" value="Stop" style="ellipse;whiteSpace=wrap;html=1;" parent="1" vertex="1">
          <mxGeometry x="400" y="850" width="120" height="40" as="geometry" />
        </mxCell>
        <mxCell id="X6nYdE7OqTvhrhTpusn--23" value="" style="endArrow=classic;html=1;rounded=0;entryX=0.119;entryY=0.74;entryDx=0;entryDy=0;entryPerimeter=0;" parent="1" edge="1">
          <mxGeometry width="50" height="50" relative="1" as="geometry">
            <mxPoint x="470" y="670" as="sourcePoint" />
            <mxPoint x="469.5" y="724" as="targetPoint" />
          </mxGeometry>
        </mxCell>
        <mxCell id="X6nYdE7OqTvhrhTpusn--25" value="" style="endArrow=classic;html=1;rounded=0;entryX=0.119;entryY=0.74;entryDx=0;entryDy=0;entryPerimeter=0;" parent="1" edge="1">
          <mxGeometry width="50" height="50" relative="1" as="geometry">
            <mxPoint x="230" y="670" as="sourcePoint" />
            <mxPoint x="229.5" y="724" as="targetPoint" />
          </mxGeometry>
        </mxCell>
        <mxCell id="X6nYdE7OqTvhrhTpusn--27" value="" style="endArrow=classic;html=1;rounded=0;entryX=0.119;entryY=0.74;entryDx=0;entryDy=0;entryPerimeter=0;" parent="1" edge="1">
          <mxGeometry width="50" height="50" relative="1" as="geometry">
            <mxPoint x="680" y="670" as="sourcePoint" />
            <mxPoint x="679.5" y="724" as="targetPoint" />
          </mxGeometry>
        </mxCell>
        <mxCell id="X6nYdE7OqTvhrhTpusn--28" value="" style="endArrow=classic;html=1;rounded=0;entryX=0.119;entryY=0.74;entryDx=0;entryDy=0;entryPerimeter=0;" parent="1" edge="1">
          <mxGeometry width="50" height="50" relative="1" as="geometry">
            <mxPoint x="455" y="726" as="sourcePoint" />
            <mxPoint x="454.5" y="780" as="targetPoint" />
          </mxGeometry>
        </mxCell>
        <mxCell id="X6nYdE7OqTvhrhTpusn--29" value="" style="endArrow=classic;html=1;rounded=0;entryX=0.119;entryY=0.74;entryDx=0;entryDy=0;entryPerimeter=0;" parent="1" edge="1">
          <mxGeometry width="50" height="50" relative="1" as="geometry">
            <mxPoint x="460" y="825" as="sourcePoint" />
            <mxPoint x="459.5" y="855" as="targetPoint" />
          </mxGeometry>
        </mxCell>
        <mxCell id="X6nYdE7OqTvhrhTpusn--33" value="Yes" style="text;html=1;align=center;verticalAlign=middle;resizable=0;points=[];autosize=1;strokeColor=none;fillColor=none;" parent="1" vertex="1">
          <mxGeometry x="120" y="340" width="40" height="30" as="geometry" />
        </mxCell>
        <mxCell id="X6nYdE7OqTvhrhTpusn--34" value="No" style="text;html=1;align=center;verticalAlign=middle;resizable=0;points=[];autosize=1;strokeColor=none;fillColor=none;" parent="1" vertex="1">
          <mxGeometry x="290" y="340" width="40" height="30" as="geometry" />
        </mxCell>
        <mxCell id="X6nYdE7OqTvhrhTpusn--35" value="Yes" style="text;html=1;align=center;verticalAlign=middle;resizable=0;points=[];autosize=1;strokeColor=none;fillColor=none;" parent="1" vertex="1">
          <mxGeometry x="240" y="480" width="40" height="30" as="geometry" />
        </mxCell>
        <mxCell id="X6nYdE7OqTvhrhTpusn--36" value="No" style="text;html=1;align=center;verticalAlign=middle;resizable=0;points=[];autosize=1;strokeColor=none;fillColor=none;" parent="1" vertex="1">
          <mxGeometry x="374" y="480" width="40" height="30" as="geometry" />
        </mxCell>
        <mxCell id="X6nYdE7OqTvhrhTpusn--37" value="No" style="text;html=1;align=center;verticalAlign=middle;resizable=0;points=[];autosize=1;strokeColor=none;fillColor=none;" parent="1" vertex="1">
          <mxGeometry x="540" y="428" width="40" height="30" as="geometry" />
        </mxCell>
        <mxCell id="X6nYdE7OqTvhrhTpusn--38" value="Yes" style="text;html=1;align=center;verticalAlign=middle;resizable=0;points=[];autosize=1;strokeColor=none;fillColor=none;" parent="1" vertex="1">
          <mxGeometry x="660" y="428" width="40" height="30" as="geometry" />
        </mxCell>
      </root>
    </mxGraphModel>
  </diagram>
</mxfile>
